<svg xmlns="http://www.w3.org/2000/svg" xmlns:xlink="http://www.w3.org/1999/xlink" width="500" zoomAndPan="magnify" viewBox="0 0 375 374.999991" height="500" preserveAspectRatio="xMidYMid meet" version="1.0"><defs><clipPath id="c5f359f90f"><path d="M 115.949219 108.957031 L 143.226562 108.957031 L 143.226562 136.234375 L 115.949219 136.234375 Z M 115.949219 108.957031 " clip-rule="nonzero"/></clipPath><clipPath id="7925ce2517"><path d="M 129.589844 108.957031 C 122.054688 108.957031 115.949219 115.0625 115.949219 122.59375 C 115.949219 130.128906 122.054688 136.234375 129.589844 136.234375 C 137.121094 136.234375 143.226562 130.128906 143.226562 122.59375 C 143.226562 115.0625 137.121094 108.957031 129.589844 108.957031 Z M 129.589844 108.957031 " clip-rule="nonzero"/></clipPath><clipPath id="99f07da711"><path d="M 231.078125 163.132812 L 258.355469 163.132812 L 258.355469 190.410156 L 231.078125 190.410156 Z M 231.078125 163.132812 " clip-rule="nonzero"/></clipPath><clipPath id="edbbd259d5"><path d="M 244.71875 163.132812 C 237.1875 163.132812 231.078125 169.238281 231.078125 176.769531 C 231.078125 184.304688 237.1875 190.410156 244.71875 190.410156 C 252.25 190.410156 258.355469 184.304688 258.355469 176.769531 C 258.355469 169.238281 252.25 163.132812 244.71875 163.132812 Z M 244.71875 163.132812 " clip-rule="nonzero"/></clipPath></defs><path stroke-linecap="butt" transform="matrix(0.75, 0, 0, 0.75, 48.040079, 20.209155)" fill="none" stroke-linejoin="miter" d="M 152.946571 16.502377 L 103.061152 16.502377 C 89.826776 16.502377 77.139275 21.757586 67.785108 31.111753 C 58.425732 40.465921 53.170523 53.15863 53.170523 66.387797 L 53.170523 161.96072 C 53.170523 169.012804 50.36844 175.773221 45.384064 180.757597 C 40.399689 185.74718 33.639272 188.544055 26.587188 188.544055 L -0.00135526 188.544055 " stroke="#ff9717" stroke-width="33" stroke-opacity="1" stroke-miterlimit="4"/><path stroke-linecap="butt" transform="matrix(0.75, 0, 0, 0.75, 48.040079, 149.243604)" fill="none" stroke-linejoin="miter" d="M 152.946571 197.347083 L 103.061152 197.347083 C 89.826776 197.347083 77.139275 192.091874 67.785108 182.737707 C 58.425732 173.378331 53.170523 160.69083 53.170523 147.461663 L 53.170523 43.086656 C 53.170523 36.034572 50.36844 29.274155 45.384064 24.284572 C 40.399689 19.300196 33.639272 16.498113 26.587188 16.498113 L -0.00135526 16.498113 " stroke="#ff9717" stroke-width="33" stroke-opacity="1" stroke-miterlimit="4"/><path stroke-linecap="butt" transform="matrix(-0.749563, 0.0256033, -0.0256033, -0.749563, 162.784007, 233.617734)" fill="none" stroke-linejoin="miter" d="M 4.69717 18.823094 C 26.885839 7.725136 49.070573 7.727264 71.262141 18.819424 " stroke="#ff9717" stroke-width="21" stroke-opacity="1" stroke-miterlimit="4"/><g clip-path="url(#c5f359f90f)"><g clip-path="url(#7925ce2517)"><path fill="#ff9717" d="M 115.949219 108.957031 L 143.226562 108.957031 L 143.226562 136.234375 L 115.949219 136.234375 Z M 115.949219 108.957031 " fill-opacity="1" fill-rule="nonzero"/></g></g><path stroke-linecap="butt" transform="matrix(0.75, 0, 0, 0.75, 231.079955, 89.541798)" fill="none" stroke-linejoin="miter" d="M -0.0024399 16.501562 L 38.544438 16.501562 C 59.836106 16.501562 77.091315 33.756771 77.091315 55.048439 L 77.091315 163.173447 C 77.091315 177.183864 88.450691 188.548448 102.466317 188.548448 L 127.841318 188.548448 " stroke="#ff5757" stroke-width="33" stroke-opacity="1" stroke-miterlimit="4"/><path stroke-linecap="butt" transform="matrix(0.75, 0, 0, 0.75, 231.079955, 217.975502)" fill="none" stroke-linejoin="miter" d="M -0.0024399 165.918091 L 38.544438 165.918091 C 59.836106 165.918091 77.091315 148.662881 77.091315 127.376422 L 77.091315 41.871208 C 77.091315 27.86079 88.450691 16.501414 102.466317 16.501414 L 127.841318 16.501414 " stroke="#ff5757" stroke-width="33" stroke-opacity="1" stroke-miterlimit="4"/><path stroke-linecap="butt" transform="matrix(-0.749563, 0.0256033, -0.0256033, -0.749563, 272.544743, 284.250773)" fill="none" stroke-linejoin="miter" d="M 4.696028 18.818146 C 26.884519 7.725393 49.074459 7.727699 71.260821 18.819681 " stroke="#ff5757" stroke-width="21" stroke-opacity="1" stroke-miterlimit="4"/><g clip-path="url(#99f07da711)"><g clip-path="url(#edbbd259d5)"><path fill="#ff5757" d="M 231.078125 163.132812 L 258.355469 163.132812 L 258.355469 190.410156 L 231.078125 190.410156 Z M 231.078125 163.132812 " fill-opacity="1" fill-rule="nonzero"/></g></g><path stroke-linecap="round" transform="matrix(-0.252207, 0.706323, -0.706323, -0.252207, 252.190358, 99.137777)" fill="none" stroke-linejoin="miter" d="M 10.840844 27.390951 C 67.973795 1.52088 125.108943 1.537852 182.23963 27.438714 " stroke="#ff5757" stroke-width="16" stroke-opacity="1" stroke-miterlimit="4"/><path stroke-linecap="round" transform="matrix(-0.394694, 0.637743, -0.637743, -0.394694, 258.601891, 106.291596)" fill="none" stroke-linejoin="miter" d="M 10.84338 27.394267 C 67.97749 1.522228 125.109109 1.536461 182.242664 27.434226 " stroke="#ff5757" stroke-width="16" stroke-opacity="1" stroke-miterlimit="4"/><path stroke-linecap="round" transform="matrix(-0.571284, 0.485937, -0.485937, -0.571284, 250.783406, 104.684722)" fill="none" stroke-linejoin="miter" d="M 11.103022 26.854946 C 57.492917 1.698437 103.879147 1.715094 150.261712 26.904918 " stroke="#ff5757" stroke-width="16" stroke-opacity="1" stroke-miterlimit="4"/><path stroke-linecap="round" transform="matrix(-0.571284, 0.485937, -0.485937, -0.571284, 252.030809, 119.029636)" fill="none" stroke-linejoin="miter" d="M 11.10672 26.853292 C 57.489273 1.697375 103.875503 1.714032 150.262035 26.907231 " stroke="#ff5757" stroke-width="16" stroke-opacity="1" stroke-miterlimit="4"/><path stroke-linecap="round" transform="matrix(-0.509035, 0.550802, -0.550802, -0.509035, 250.350427, 124.255437)" fill="none" stroke-linejoin="miter" d="M 11.105743 26.853496 C 57.493916 1.698532 103.877817 1.716777 150.26127 26.904696 " stroke="#ff5757" stroke-width="16" stroke-opacity="1" stroke-miterlimit="4"/></svg>